<?xml version="1.0" standalone="no"?>
<!DOCTYPE svg PUBLIC "-//W3C//DTD SVG 20010904//EN"
 "http://www.w3.org/TR/2001/REC-SVG-20010904/DTD/svg10.dtd">
<svg version="1.0" xmlns="http://www.w3.org/2000/svg"
 width="300.000000pt" height="300.000000pt" viewBox="0 0 300.000000 300.000000"
 preserveAspectRatio="xMidYMid meet">
<metadata>
Created by potrace 1.10, written by Peter Selinger 2001-2011
</metadata>
<g transform="translate(0.000000,300.000000) scale(0.100000,-0.100000)"
fill="#000000" stroke="none">
<path d="M1047 2764 c-4 -4 -7 -14 -7 -23 1 -9 -32 -181 -71 -383 l-72 -367
301 -299 301 -300 301 302 301 301 -71 370 c-86 441 -80 419 -93 380 -5 -16
-65 -176 -133 -356 -67 -179 -126 -337 -130 -353 -3 -15 -10 -24 -14 -19 -4 4
-40 86 -81 181 -41 94 -76 172 -79 172 -3 0 -38 -78 -79 -172 -41 -95 -77
-177 -81 -181 -4 -5 -10 3 -14 18 -4 14 -62 173 -130 353 -68 180 -128 340
-132 355 -5 16 -13 25 -17 21z m128 -434 c53 -140 106 -272 118 -295 43 -77
69 -59 142 100 30 66 59 121 64 123 4 1 30 -47 57 -109 72 -162 106 -191 147
-121 10 18 64 150 119 295 54 144 103 266 108 271 11 11 9 20 70 -288 28 -137
50 -263 50 -280 0 -27 -32 -63 -267 -298 -148 -148 -275 -268 -283 -268 -14 0
-560 538 -560 551 0 10 110 554 116 572 3 11 10 15 14 11 5 -5 52 -124 105
-264z"/>
<path d="M695 1470 l-260 -260 129 -129 128 -129 175 85 175 85 229 -228 229
-229 228 228 227 228 70 -32 c38 -18 114 -54 167 -81 54 -26 103 -48 110 -48
8 0 69 56 138 125 l125 125 -260 260 -260 260 -272 -272 -273 -273 -273 273
-272 272 -260 -260z m758 -288 c21 -18 43 -32 49 -32 6 0 129 117 273 260 144
143 266 260 270 260 12 0 433 -419 447 -444 9 -16 -4 -33 -88 -117 -54 -55
-104 -99 -112 -99 -7 0 -52 20 -100 44 -174 87 -230 108 -254 95 -13 -6 -116
-104 -230 -217 l-208 -206 -207 206 c-115 113 -218 211 -230 217 -26 13 -77
-6 -245 -90 -54 -27 -103 -49 -111 -49 -7 0 -57 44 -111 99 -84 84 -97 101
-88 117 6 11 108 116 227 234 l215 214 233 -230 c127 -127 249 -245 270 -262z"/>
<path d="M928 967 c-60 -29 -108 -54 -108 -57 0 -3 103 -109 230 -235 l230
-230 85 85 85 85 -202 202 c-112 112 -205 203 -208 202 -3 0 -53 -24 -112 -52z
m284 -174 c93 -92 168 -173 168 -179 0 -6 -23 -33 -51 -59 l-51 -48 -189 189
c-104 104 -189 194 -189 199 0 13 98 64 125 64 13 1 79 -58 187 -166z"/>
<path d="M1752 817 l-202 -202 85 -85 85 -84 230 229 c126 127 230 232 230
235 0 4 -164 84 -219 108 -3 1 -97 -89 -209 -201z m293 118 c30 -14 55 -31 55
-38 0 -7 -85 -97 -189 -201 l-189 -189 -51 48 c-28 26 -51 53 -51 59 0 18 333
346 352 346 10 0 42 -11 73 -25z"/>
<path d="M1417 482 c-42 -42 -77 -82 -77 -87 0 -6 36 -46 80 -90 l80 -79 80
79 c44 44 80 85 80 90 0 10 -151 165 -160 165 -3 0 -40 -35 -83 -78z m141 -35
c23 -23 42 -47 42 -53 0 -15 -84 -94 -101 -94 -16 0 -99 80 -99 95 0 16 83 95
100 95 9 0 35 -19 58 -43z"/>
</g>
</svg>
